# xmcd
#
# Track frame offsets: 
#        150
#        13996
#        32024
#        45288
#        63871
#        76069
#        99506
#        112260
#        128086
#        144147
#        157831
#
# Disc length: 2472 seconds
#
# Revision: 0
# Processed by: cddbd v1.5.2PL0 Copyright (c) Steve Scherf et al.
# Submitted via: ExactAudioCopy v0.95a4
#
DISCID=7d09a60b
DTITLE=Runaway Dorothy - The Wait
DYEAR=2014
DGENRE=Folk
TTITLE0=Sing With Me
TTITLE1=Let The Right One In
TTITLE2=Give Me A Reason
TTITLE3=Background
TTITLE4=Hurry
TTITLE5=Blue Kentucky Rain
TTITLE6=Caroline
TTITLE7=Want It All
TTITLE8=Come Down
TTITLE9=Chases
TTITLE10=Ballad Of A Dead Man
EXTD=
EXTT0=
EXTT1=
EXTT2=
EXTT3=
EXTT4=
EXTT5=
EXTT6=
EXTT7=
EXTT8=
EXTT9=
EXTT10=
PLAYORDER=
